<svg xmlns="http://www.w3.org/2000/svg" viewBox="0 0 760 560">
  <defs>
    <linearGradient id="shirt" x1="0" x2="1">
      <stop offset="0" stop-color="#7d0007"/>
      <stop offset="0.5" stop-color="#e5222a"/>
      <stop offset="1" stop-color="#7d0007"/>
    </linearGradient>
    <filter id="shadow"><feDropShadow dx="0" dy="16" stdDeviation="16" flood-opacity=".35"/></filter>
  </defs>
  <g filter="url(#shadow)" transform="translate(80 25)">
    <circle cx="351" cy="86" r="43" fill="#d2a27e"/>
    <path d="M322 65q30-35 65 4q-3-36-33-42q-33 5-32 38z" fill="#161616"/>
    <path d="M305 126q53-25 102 4l57 158q-95 48-205 3z" fill="url(#shirt)"/>
    <path d="M316 133L190 232" stroke="#d2a27e" stroke-width="31" stroke-linecap="round"/>
    <path d="M193 232L92 180" stroke="#d2a27e" stroke-width="28" stroke-linecap="round"/>
    <circle cx="75" cy="170" r="31" fill="#444" stroke="#111" stroke-width="5"/>
    <path d="M405 136L565 194" stroke="#d2a27e" stroke-width="31" stroke-linecap="round"/>
    <path d="M565 194L651 148" stroke="#d2a27e" stroke-width="27" stroke-linecap="round"/>
    <path d="M286 286l90 4l-30 105l-122 125" stroke="#111" stroke-width="56" stroke-linecap="round" stroke-linejoin="round"/>
    <path d="M402 292l34 109l120 95" stroke="#111" stroke-width="56" stroke-linecap="round" stroke-linejoin="round"/>
    <path d="M210 514l-83 16" stroke="#d71920" stroke-width="34" stroke-linecap="round"/>
    <path d="M563 501l74 28" stroke="#d71920" stroke-width="34" stroke-linecap="round"/>
    <circle cx="357" cy="198" r="26" fill="#fff" opacity=".95"/>
    <text x="357" y="207" text-anchor="middle" font-family="Arial Black" font-size="23" fill="#d71920">KHK</text>
  </g>
</svg>